<svg width="191" height="191" viewBox="0 0 191 191" fill="none" xmlns="http://www.w3.org/2000/svg">
<path d="M79.7945 40.834L97.8743 54.5484M84.7828 62.4196L127.722 94.9913M160.685 84.3917L144.865 72.3916L131.151 90.4714C121.523 103.163 117.764 111.142 115.731 122.289C114.673 128.087 114.846 135.069 119.542 138.631M87.0428 64.1339C78.1998 74.8718 72.7884 79.0768 64.0283 83.1342C58.6796 85.6138 51.9191 87.3357 47.2228 83.7734M36.8597 111.516C30.8659 106.969 26.9238 100.228 25.9004 92.7747C24.8771 85.3215 26.8565 77.7671 31.4031 71.7733C35.9497 65.7795 42.6911 61.8373 50.1443 60.814C57.5975 59.7906 65.1519 61.77 71.1457 66.3166C77.1395 70.8632 81.0817 77.6046 82.1051 85.0578C83.1284 92.511 81.149 100.065 76.6024 106.059C72.0558 112.053 65.3144 115.995 57.8612 117.019C50.408 118.042 42.8536 116.063 36.8597 111.516ZM95.6189 156.088C89.6251 151.541 85.6829 144.8 84.6596 137.347C83.6363 129.893 85.6156 122.339 90.1622 116.345C94.7088 110.351 101.45 106.409 108.903 105.386C116.357 104.362 123.911 106.342 129.905 110.888C135.899 115.435 139.841 122.176 140.864 129.63C141.888 137.083 139.908 144.637 135.362 150.631C130.815 156.625 124.074 160.567 116.62 161.59C109.167 162.614 101.613 160.634 95.6189 156.088Z" stroke="#D8C0FB"/>
</svg>
