<svg width="32" height="32" viewBox="0 0 32 32" fill="none" xmlns="http://www.w3.org/2000/svg">
<path d="M15.3332 4C18.6926 4 21.9144 5.33452 24.2899 7.70998C26.6653 10.0854 27.9998 13.3073 27.9998 16.6667C27.9998 20.0261 26.6653 23.2479 24.2899 25.6234C21.9144 27.9988 18.6926 29.3333 15.3332 29.3333C11.9738 29.3333 8.75195 27.9988 6.37648 25.6234C4.00102 23.2479 2.6665 20.0261 2.6665 16.6667C2.6665 13.3073 4.00102 10.0854 6.37648 7.70998C8.75195 5.33452 11.9738 4 15.3332 4ZM15.3332 5.33333C12.3274 5.33333 9.44471 6.52738 7.31929 8.65279C5.19388 10.7782 3.99984 13.6609 3.99984 16.6667C3.99984 19.6725 5.19388 22.5551 7.31929 24.6805C9.44471 26.806 12.3274 28 15.3332 28C16.8215 28 18.2952 27.7069 19.6702 27.1373C21.0453 26.5677 22.2947 25.7329 23.347 24.6805C24.3994 23.6281 25.2343 22.3788 25.8038 21.0037C26.3734 19.6287 26.6665 18.155 26.6665 16.6667C26.6665 13.6609 25.4725 10.7782 23.347 8.65279C21.2216 6.52738 18.339 5.33333 15.3332 5.33333ZM14.6665 9.33333H15.9998V16.56L22.2665 20.1733L21.5998 21.3333L14.6665 17.3333V9.33333Z" fill="#8133F1"/>
</svg>
