<svg width="40" height="40" viewBox="0 0 40 40" fill="none" xmlns="http://www.w3.org/2000/svg">
<path d="M28 0C34.6274 0 40 5.37258 40 12V28C40 34.6274 34.6274 40 28 40H12C5.37258 40 0 34.6274 0 28V12C0 5.37258 5.37258 0 12 0H28Z" fill="#8133F1"/>
<path d="M28 0C34.6274 0 40 5.37258 40 12V28C40 34.6274 34.6274 40 28 40H12C5.37258 40 0 34.6274 0 28V12C0 5.37258 5.37258 0 12 0H28Z" stroke="#E5E7EB"/>
<path d="M27.875 34H12.125V6H27.875V34Z" stroke="#E5E7EB"/>
<g clip-path="url(#clip0_680_990)">
<path d="M23.375 11.9375C23.375 11.4899 23.1972 11.0607 22.8807 10.7443C22.5643 10.4278 22.1351 10.25 21.6875 10.25C21.2399 10.25 20.8107 10.4278 20.4943 10.7443C20.1778 11.0607 20 11.4899 20 11.9375C20 12.3851 20.1778 12.8143 20.4943 13.1307C20.8107 13.4472 21.2399 13.625 21.6875 13.625C22.1351 13.625 22.5643 13.4472 22.8807 13.1307C23.1972 12.8143 23.375 12.3851 23.375 11.9375ZM16.5441 16.4199C16.8922 16.0719 17.3668 15.875 17.8625 15.875C17.9293 15.875 17.9961 15.8785 18.0594 15.8855L16.9625 19.1797C16.6355 20.1641 17.0223 21.2469 17.9047 21.7988L20.9352 23.6938L20.0422 26.8156C19.8699 27.4133 20.218 28.0355 20.8156 28.2078C21.4133 28.3801 22.0355 28.032 22.2078 27.4344L23.2168 23.9047C23.4242 23.1805 23.1254 22.407 22.4891 22.0098L20.4922 20.7617L21.5785 17.8648L21.7578 18.2973C22.2852 19.5559 23.5121 20.375 24.8762 20.375H25.625C26.2473 20.375 26.75 19.8723 26.75 19.25C26.75 18.6277 26.2473 18.125 25.625 18.125H24.8762C24.4227 18.125 24.0113 17.8508 23.8391 17.4324L23.6176 16.9051C23.1043 15.6711 22.0672 14.7289 20.7875 14.3352L19.0754 13.8078C18.6852 13.6883 18.2773 13.625 17.866 13.625C16.7762 13.625 15.7285 14.0574 14.9586 14.8309L14.143 15.643C13.7035 16.0824 13.7035 16.7961 14.143 17.2355C14.5824 17.675 15.2961 17.675 15.7355 17.2355L16.5477 16.4234L16.5441 16.4199ZM15.3312 22.625H13.25C12.6277 22.625 12.125 23.1277 12.125 23.75C12.125 24.3723 12.6277 24.875 13.25 24.875H15.6969C16.3648 24.875 16.9695 24.4813 17.2402 23.873L17.6445 22.9625L17.3105 22.7516C16.6953 22.3684 16.2383 21.8094 15.9781 21.173L15.3312 22.625Z" fill="white"/>
</g>
<defs>
<clipPath id="clip0_680_990">
<path d="M12.125 10.25H27.875V28.25H12.125V10.25Z" fill="white"/>
</clipPath>
</defs>
</svg>
