<svg width="192" height="192" viewBox="0 0 192 192" fill="none" xmlns="http://www.w3.org/2000/svg">
<path d="M138.57 124.634L137.808 123.988L149.47 94.2159L62.1751 59.933L60.6535 58.6221M58.4742 56.8061L60.6388 58.6394L141.541 60.9591L139.253 88.3886" stroke="#D8C0FB" stroke-width="2" stroke-linecap="square"/>
<path d="M92.1075 122.434C89.6764 125.305 86.2046 127.092 82.4558 127.403C78.707 127.713 74.9883 126.522 72.1178 124.091C69.2473 121.66 67.4601 118.188 67.1494 114.439C66.8387 110.691 68.0299 106.972 70.461 104.101C72.8921 101.231 76.364 99.4437 80.1128 99.133C83.8616 98.8223 87.5803 100.014 90.4508 102.445C93.3213 104.876 95.1084 108.348 95.4192 112.096C95.7299 115.845 94.5386 119.564 92.1075 122.434Z" stroke="#D8C0FB" stroke-width="2" stroke-linecap="square"/>
<path d="M140.746 126.454L104.08 169.747L21.823 100.082L58.4888 56.7888L140.746 126.454Z" stroke="#D8C0FB" stroke-width="2" stroke-linecap="square"/>
<path d="M58.4888 56.7888L67.1474 64.1219C65.2026 66.4183 62.4251 67.8481 59.4261 68.0966C56.427 68.3452 53.4521 67.3922 51.1557 65.4474L58.4888 56.7888ZM140.746 126.454L132.087 119.121C130.142 121.417 129.189 124.392 129.438 127.391C129.686 130.39 131.116 133.168 133.412 135.113L140.746 126.454ZM21.823 100.082L30.4902 107.422C31.4556 106.285 32.1872 104.968 32.643 103.547C33.0989 102.127 33.2701 100.63 33.1469 99.1432C33.0236 97.6564 32.6084 96.2084 31.9248 94.8822C31.2413 93.556 30.303 92.3776 29.1635 91.4145L21.823 100.082ZM104.08 169.747L95.4211 162.414C97.366 160.117 100.143 158.688 103.142 158.439C106.142 158.19 109.116 159.143 111.413 161.088L104.08 169.747Z" stroke="#D8C0FB" stroke-width="2" stroke-linecap="square"/>
</svg>
