<svg width="137" height="137" viewBox="0 0 137 137" fill="none" xmlns="http://www.w3.org/2000/svg">
<path opacity="0.5" d="M104.957 39.7133C112.79 39.7133 119.14 33.3633 119.14 25.53C119.14 17.6968 112.79 11.3467 104.957 11.3467C97.1234 11.3467 90.7733 17.6968 90.7733 25.53C90.7733 33.3633 97.1234 39.7133 104.957 39.7133Z" stroke="#D8C0FB" stroke-width="1.5"/>
<path d="M51.06 96.4467L45.3867 103.255C41.1997 108.281 39.1063 110.789 36.2526 112.128C33.3989 113.467 30.1254 113.467 23.584 113.467H17.02" stroke="#D8C0FB" stroke-width="1.5" stroke-linecap="round"/>
<path d="M20.5885 50.9693C19.6075 51.5275 18.8884 52.4526 18.5894 53.541C18.4414 54.0799 18.4009 54.6428 18.4704 55.1973C18.5399 55.7519 18.7179 56.2873 18.9943 56.7731C19.2707 57.2588 19.6401 57.6854 20.0814 58.0284C20.5226 58.3714 21.0271 58.6242 21.5661 58.7722C22.6545 59.0712 23.8171 58.9255 24.7981 58.3673L20.5885 50.9693ZM119.14 72.335C120.269 72.335 121.351 71.8867 122.149 71.0888C122.947 70.2908 123.395 69.2085 123.395 68.08C123.395 66.9515 122.947 65.8693 122.149 65.0713C121.351 64.2733 120.269 63.825 119.14 63.825V72.335ZM28.7411 46.3398L20.5885 50.9693L24.7981 58.3673L32.9394 53.7378L28.7411 46.3398ZM85.8148 59.8026L86.1723 60.3303L93.2526 55.61L92.8952 55.0824L85.8148 59.8026ZM62.6676 33.5124C62.1525 33.4605 61.636 33.4226 61.1188 33.399L60.7444 41.8976C61.0205 41.909 61.3684 41.9354 61.7883 41.977L62.6676 33.5124ZM32.9394 53.7378C46.0958 46.2661 52.1493 42.9075 58.1914 42.0735L57.0283 33.6429C48.9779 34.7549 41.2678 39.2198 28.7411 46.3398L32.9394 53.7378ZM108.593 72.335H119.14V63.825H108.588L108.593 72.335ZM61.1188 33.399C59.7527 33.3571 58.3855 33.4387 57.034 33.6429L58.1914 42.0735C59.2012 41.9373 60.0182 41.8579 60.7444 41.8976L61.1188 33.399ZM86.1723 60.3359C88.6331 64.0269 91.9672 67.0533 95.8784 69.1465C99.7896 71.2397 104.157 72.3349 108.593 72.335V63.825C105.558 63.8244 102.569 63.0742 99.8928 61.6412C97.2167 60.2081 94.9358 58.1364 93.2526 55.61L86.1723 60.3359ZM92.8952 55.0824C86.2177 45.0633 76.1872 34.9194 62.6676 33.5124L61.7883 41.977C71.45 42.9812 79.5685 50.4303 85.8148 59.8026L92.8952 55.0824Z" fill="#D8C0FB"/>
<path opacity="0.5" d="M79.4267 48.2233L66.8319 63.9725C62.0833 69.9011 59.7118 72.8683 59.3317 76.0964C59.1199 77.9114 59.3496 79.7506 60.0012 81.4577C61.1585 84.4986 64.1824 86.7907 70.2415 91.3804C74.854 94.8752 77.1573 96.6169 78.7232 98.9032C79.6158 100.216 80.3155 101.623 80.8223 103.124C81.696 105.745 81.696 108.639 81.696 114.425V124.813" stroke="#D8C0FB" stroke-width="1.5" stroke-linecap="round"/>
</svg>
