<svg width="54" height="54" viewBox="0 0 54 54" fill="none" xmlns="http://www.w3.org/2000/svg">
<rect x="0.5" y="0.5" width="53" height="53" rx="11.5" stroke="#212121"/>
<path d="M24.875 27.6269L22.1231 24.875L20.625 26.3731L24.875 30.6231L33.375 22.1231L31.8769 20.625L24.875 27.6269Z" fill="black"/>
<path d="M27 41.875L20.438 38.3762C18.5671 37.3811 17.0026 35.8953 15.9124 34.0783C14.8222 32.2612 14.2475 30.1815 14.25 28.0625V14.25C14.25 13.6864 14.4739 13.1459 14.8724 12.7474C15.2709 12.3489 15.8114 12.125 16.375 12.125H37.625C38.1886 12.125 38.7291 12.3489 39.1276 12.7474C39.5261 13.1459 39.75 13.6864 39.75 14.25V28.0625C39.7525 30.1815 39.1778 32.2612 38.0876 34.0783C36.9974 35.8953 35.4329 37.3811 33.562 38.3762L27 41.875ZM16.375 14.25V28.0625C16.3738 29.7962 16.8445 31.4975 17.7366 32.984C18.6286 34.4706 19.9085 35.6863 21.4389 36.5009L27 39.4663L32.5611 36.5019C34.0917 35.6873 35.3716 34.4714 36.2637 32.9846C37.1558 31.4979 37.6264 29.7964 37.625 28.0625V14.25H16.375Z" fill="black"/>
</svg>
