<svg width="32" height="32" viewBox="0 0 32 32" fill="none" xmlns="http://www.w3.org/2000/svg">
<path d="M12.0306 28.3067L9.80393 24.5547L5.56926 23.6413L5.98526 19.272L3.12793 16L5.9866 12.728L5.56926 8.35999L9.80526 7.44665L12.0306 3.69332L15.9999 5.36932L19.9693 3.69199L22.1959 7.44665L26.4306 8.35865L26.0146 12.728L28.8733 16L26.0173 19.272L26.4319 23.6413L22.1959 24.5533L19.9706 28.308L15.9999 26.6307L12.0306 28.3067ZM12.5999 26.6L15.9999 25.1853L19.4159 26.6L21.3333 23.4L24.9999 22.5853L24.6666 18.8L27.1333 16L24.6666 13.1853L24.9999 9.39999L21.3333 8.59999L19.3999 5.39999L15.9999 6.81599L12.5853 5.39999L10.6666 8.59999L6.99993 9.39999L7.33326 13.1853L4.8666 16L7.33326 18.8L6.99993 22.6L10.6666 23.4L12.5999 26.6ZM14.5999 19.8107L21.2106 13.2L20.2666 12.24L14.5999 17.9067L11.7333 15.056L10.7893 16L14.5999 19.8107Z" fill="#8133F1"/>
</svg>
