<svg width="32" height="32" viewBox="0 0 32 32" fill="none" xmlns="http://www.w3.org/2000/svg">
<path d="M30.265 7.92375C30.1929 7.87872 30.1106 7.85279 30.0257 7.84841C29.9409 7.84404 29.8563 7.86136 29.78 7.89875C24.2338 10.6088 20.3088 9.35375 16.155 8.02375C12.0013 6.69375 7.69125 5.315 1.78 8.20125C1.69585 8.24248 1.62498 8.30654 1.57547 8.3861C1.52596 8.46567 1.49981 8.55754 1.5 8.65125V23.6513C1.49983 23.7362 1.52132 23.8198 1.56244 23.8942C1.60355 23.9686 1.66294 24.0312 1.735 24.0763C1.80706 24.1213 1.8894 24.1472 1.97426 24.1516C2.05912 24.156 2.1437 24.1386 2.22 24.1013C7.76625 21.3913 11.6913 22.6463 15.845 23.9763C18.2025 24.7263 20.605 25.5 23.32 25.5C25.3962 25.5 27.6563 25.05 30.2175 23.7988C30.3017 23.7575 30.3725 23.6935 30.422 23.6139C30.4715 23.5343 30.4977 23.4425 30.4975 23.3488V8.34875C30.4979 8.26401 30.4768 8.18056 30.4362 8.10621C30.3955 8.03187 30.3366 7.96909 30.265 7.92375ZM29.5 23.0338C24.1013 25.5675 20.2375 24.3313 16.1525 23.0238C13.795 22.2738 11.3925 21.5013 8.6775 21.5013C6.8025 21.5013 4.7675 21.8763 2.5 22.8688V8.96625C7.89875 6.4325 11.7625 7.66875 15.8475 8.97625C19.8375 10.25 23.9587 11.5713 29.5 9.13125V23.0338ZM16 12.5C15.3078 12.5 14.6311 12.7053 14.0555 13.0899C13.4799 13.4744 13.0313 14.0211 12.7664 14.6606C12.5015 15.3002 12.4322 16.0039 12.5673 16.6828C12.7023 17.3618 13.0356 17.9854 13.5251 18.4749C14.0146 18.9644 14.6383 19.2977 15.3172 19.4328C15.9961 19.5678 16.6999 19.4985 17.3394 19.2336C17.9789 18.9687 18.5256 18.5201 18.9101 17.9445C19.2947 17.3689 19.5 16.6922 19.5 16C19.5 15.0717 19.1313 14.1815 18.4749 13.5251C17.8185 12.8688 16.9283 12.5 16 12.5ZM16 18.5C15.5055 18.5 15.0222 18.3534 14.6111 18.0787C14.2 17.804 13.8795 17.4135 13.6903 16.9567C13.5011 16.4999 13.4516 15.9972 13.548 15.5123C13.6445 15.0273 13.8826 14.5819 14.2322 14.2322C14.5819 13.8826 15.0273 13.6445 15.5123 13.548C15.9972 13.4516 16.4999 13.5011 16.9567 13.6903C17.4135 13.8795 17.804 14.2 18.0787 14.6111C18.3534 15.0222 18.5 15.5055 18.5 16C18.5 16.663 18.2366 17.2989 17.7678 17.7678C17.2989 18.2366 16.663 18.5 16 18.5ZM6.5 12V18C6.5 18.1326 6.44732 18.2598 6.35355 18.3536C6.25979 18.4473 6.13261 18.5 6 18.5C5.86739 18.5 5.74022 18.4473 5.64645 18.3536C5.55268 18.2598 5.5 18.1326 5.5 18V12C5.5 11.8674 5.55268 11.7402 5.64645 11.6464C5.74022 11.5527 5.86739 11.5 6 11.5C6.13261 11.5 6.25979 11.5527 6.35355 11.6464C6.44732 11.7402 6.5 11.8674 6.5 12ZM25.5 20V14C25.5 13.8674 25.5527 13.7402 25.6464 13.6464C25.7402 13.5527 25.8674 13.5 26 13.5C26.1326 13.5 26.2598 13.5527 26.3536 13.6464C26.4473 13.7402 26.5 13.8674 26.5 14V20C26.5 20.1326 26.4473 20.2598 26.3536 20.3536C26.2598 20.4473 26.1326 20.5 26 20.5C25.8674 20.5 25.7402 20.4473 25.6464 20.3536C25.5527 20.2598 25.5 20.1326 25.5 20Z" fill="#F1BA2A"/>
</svg>
